999
dxfrw 0.5.10
0
SECTION
2
HEADER
9
$ACADVER
1
AC1021
9
$HANDSEED
5
20000
9
$DWGCODEPAGE
3
ANSI_1252
9
$INSBASE
10
0
20
0
30
0
9
$EXTMIN
10
38.05
20
17.1146509312
30
0
9
$EXTMAX
10
72.3
20
83.8
30
0
9
$LIMMIN
10
0
20
0
9
$LIMMAX
10
420
20
297
9
$ORTHOMODE
70
0
9
$LTSCALE
40
1
9
$TEXTSTYLE
7
STANDARD
9
$CLAYER
8
0
9
$DIMASZ
40
2.5
9
$DIMLFAC
40
1
9
$DIMSCALE
40
1
9
$DIMEXO
40
0.625
9
$DIMEXE
40
1.25
9
$DIMTXT
40
2.5
9
$DIMTSZ
40
0
9
$DIMAUNIT
70
0
9
$DIMADEC
70
0
9
$DIMLUNIT
70
2
9
$DIMSTYLE
2
STANDARD
9
$DIMGAP
40
0.625
9
$DIMTIH
70
0
9
$LUNITS
70
2
9
$LUPREC
70
4
9
$AUNITS
70
0
9
$AUPREC
70
2
9
$SPLINESEGS
70
8
9
$SNAPSTYLE
70
0
9
$PINSBASE
10
0
20
0
30
0
9
$PLIMMIN
10
0
20
0
9
$PLIMMAX
10
215.9
20
279.4
9
$INSUNITS
70
4
9
$PSVPSCALE
40
1
0
ENDSEC
0
SECTION
2
CLASSES
0
ENDSEC
0
SECTION
2
TABLES
0
TABLE
2
VPORT
5
8
330
0
100
AcDbSymbolTable
70
1
0
VPORT
5
31
330
2
100
AcDbSymbolTableRecord
100
AcDbViewportTableRecord
2
*ACTIVE
70
0
10
0
20
0
11
1
21
1
12
106.126604523
22
54.9841457824
13
0
23
0
14
10
24
10
15
10
25
10
16
0
26
0
36
1
17
0
27
0
37
0
40
134.298976161
41
2.0274135876
42
50
43
0
44
0
50
0
51
0
71
0
72
100
73
1
74
3
75
0
76
1
77
0
78
0
281
0
65
1
110
0
120
0
130
0
111
1
121
0
131
0
112
0
122
1
132
0
79
0
146
0
348
10020
60
7
61
5
292
1
282
1
141
0
142
0
63
250
421
3358443
0
ENDTAB
0
TABLE
2
LTYPE
5
5
330
0
100
AcDbSymbolTable
70
4
0
LTYPE
5
14
330
5
100
AcDbSymbolTableRecord
100
AcDbLinetypeTableRecord
2
ByBlock
70
0
3

72
65
73
0
40
0
0
LTYPE
5
15
330
5
100
AcDbSymbolTableRecord
100
AcDbLinetypeTableRecord
2
ByLayer
70
0
3

72
65
73
0
40
0
0
LTYPE
5
16
330
5
100
AcDbSymbolTableRecord
100
AcDbLinetypeTableRecord
2
Continuous
70
0
3
Solid line
72
65
73
0
40
0
0
LTYPE
5
32
330
5
100
AcDbSymbolTableRecord
100
AcDbLinetypeTableRecord
2
DOT
70
0
3
Dot . . . . . . . . . . . . . . . . . . . . . .
72
65
73
2
40
6.35
49
0
74
0
49
-6.35
74
0
0
LTYPE
5
33
330
5
100
AcDbSymbolTableRecord
100
AcDbLinetypeTableRecord
2
DOT2
70
0
3
Dot (.5x) .....................................
72
65
73
2
40
3.175
49
0
74
0
49
-3.175
74
0
0
LTYPE
5
34
330
5
100
AcDbSymbolTableRecord
100
AcDbLinetypeTableRecord
2
DOTX2
70
0
3
Dot (2x) .  .  .  .  .  .  .  .  .  .  .  .  .
72
65
73
2
40
12.7
49
0
74
0
49
-12.7
74
0
0
LTYPE
5
35
330
5
100
AcDbSymbolTableRecord
100
AcDbLinetypeTableRecord
2
DASHED
70
0
3
Dot . . . . . . . . . . . . . . . . . . . . . .
72
65
73
2
40
19.05
49
12.7
74
0
49
-6.35
74
0
0
LTYPE
5
36
330
5
100
AcDbSymbolTableRecord
100
AcDbLinetypeTableRecord
2
DASHED2
70
0
3
Dashed (.5x) _ _ _ _ _ _ _ _ _ _ _ _ _ _ _ _ _
72
65
73
2
40
9.525
49
6.35
74
0
49
-3.175
74
0
0
LTYPE
5
37
330
5
100
AcDbSymbolTableRecord
100
AcDbLinetypeTableRecord
2
DASHEDX2
70
0
3
Dashed (2x) ____  ____  ____  ____  ____  ___
72
65
73
2
40
38.1
49
25.4
74
0
49
-12.7
74
0
0
LTYPE
5
38
330
5
100
AcDbSymbolTableRecord
100
AcDbLinetypeTableRecord
2
DASHDOT
70
0
3
Dash dot __ . __ . __ . __ . __ . __ . __ . __
72
65
73
4
40
25.4
49
12.7
74
0
49
-6.35
74
0
49
0
74
0
49
-6.35
74
0
0
LTYPE
5
39
330
5
100
AcDbSymbolTableRecord
100
AcDbLinetypeTableRecord
2
DASHDOT2
70
0
3
Dash dot (.5x) _._._._._._._._._._._._._._._.
72
65
73
4
40
12.7
49
6.35
74
0
49
-3.175
74
0
49
0
74
0
49
-3.175
74
0
0
LTYPE
5
3A
330
5
100
AcDbSymbolTableRecord
100
AcDbLinetypeTableRecord
2
DASHDOTX2
70
0
3
Dash dot (2x) ____  .  ____  .  ____  .  ___
72
65
73
4
40
50.8
49
25.4
74
0
49
-12.7
74
0
49
0
74
0
49
-12.7
74
0
0
LTYPE
5
3B
330
5
100
AcDbSymbolTableRecord
100
AcDbLinetypeTableRecord
2
DIVIDE
70
0
3
Divide ____ . . ____ . . ____ . . ____ . . ____
72
65
73
6
40
31.75
49
12.7
74
0
49
-6.35
74
0
49
0
74
0
49
-6.35
74
0
49
0
74
0
49
-6.35
74
0
0
LTYPE
5
3C
330
5
100
AcDbSymbolTableRecord
100
AcDbLinetypeTableRecord
2
DIVIDE2
70
0
3
Divide (.5x) __..__..__..__..__..__..__..__.._
72
65
73
6
40
15.875
49
6.35
74
0
49
-3.175
74
0
49
0
74
0
49
-3.175
74
0
49
0
74
0
49
-3.175
74
0
0
LTYPE
5
3D
330
5
100
AcDbSymbolTableRecord
100
AcDbLinetypeTableRecord
2
DIVIDEX2
70
0
3
Divide (2x) ________  .  .  ________  .  .  _
72
65
73
6
40
63.5
49
25.4
74
0
49
-12.7
74
0
49
0
74
0
49
-12.7
74
0
49
0
74
0
49
-12.7
74
0
0
LTYPE
5
3E
330
5
100
AcDbSymbolTableRecord
100
AcDbLinetypeTableRecord
2
BORDER
70
0
3
Border __ __ . __ __ . __ __ . __ __ . __ __ .
72
65
73
6
40
44.45
49
12.7
74
0
49
-6.35
74
0
49
12.7
74
0
49
-6.35
74
0
49
0
74
0
49
-6.35
74
0
0
LTYPE
5
3F
330
5
100
AcDbSymbolTableRecord
100
AcDbLinetypeTableRecord
2
BORDER2
70
0
3
Border (.5x) __.__.__.__.__.__.__.__.__.__.__.
72
65
73
6
40
22.225
49
6.35
74
0
49
-3.175
74
0
49
6.35
74
0
49
-3.175
74
0
49
0
74
0
49
-3.175
74
0
0
LTYPE
5
40
330
5
100
AcDbSymbolTableRecord
100
AcDbLinetypeTableRecord
2
BORDERX2
70
0
3
Border (2x) ____  ____  .  ____  ____  .  ___
72
65
73
6
40
88.9
49
25.4
74
0
49
-12.7
74
0
49
25.4
74
0
49
-12.7
74
0
49
0
74
0
49
-12.7
74
0
0
LTYPE
5
41
330
5
100
AcDbSymbolTableRecord
100
AcDbLinetypeTableRecord
2
CENTER
70
0
3
Center ____ _ ____ _ ____ _ ____ _ ____ _ ____
72
65
73
4
40
50.8
49
31.75
74
0
49
-6.35
74
0
49
6.35
74
0
49
-6.35
74
0
0
LTYPE
5
42
330
5
100
AcDbSymbolTableRecord
100
AcDbLinetypeTableRecord
2
CENTER2
70
0
3
Center (.5x) ___ _ ___ _ ___ _ ___ _ ___ _ ___
72
65
73
4
40
28.575
49
19.05
74
0
49
-3.175
74
0
49
3.175
74
0
49
-3.175
74
0
0
LTYPE
5
43
330
5
100
AcDbSymbolTableRecord
100
AcDbLinetypeTableRecord
2
CENTERX2
70
0
3
Center (2x) ________  __  ________  __  _____
72
65
73
4
40
101.6
49
63.5
74
0
49
-12.7
74
0
49
12.7
74
0
49
-12.7
74
0
0
ENDTAB
0
TABLE
2
LAYER
5
2
330
0
100
AcDbSymbolTable
70
1
0
LAYER
5
10
330
2
100
AcDbSymbolTableRecord
100
AcDbLayerTableRecord
2
0
70
0
62
7
6
CONTINUOUS
370
0
390
F
0
LAYER
5
44
330
2
100
AcDbSymbolTableRecord
100
AcDbLayerTableRecord
2
guide
70
1
62
3
6
CONTINUOUS
370
0
390
F
0
LAYER
5
45
330
2
100
AcDbSymbolTableRecord
100
AcDbLayerTableRecord
2
dim
70
0
62
253
420
10526884
6
CONTINUOUS
370
0
390
F
0
ENDTAB
0
TABLE
2
STYLE
5
3
330
0
100
AcDbSymbolTable
70
3
0
STYLE
5
46
330
2
100
AcDbSymbolTableRecord
100
AcDbTextStyleTableRecord
2
Standard
70
0
40
0
41
1
50
0
71
0
42
1
3
txt
4

0
ENDTAB
0
TABLE
2
VIEW
5
6
330
0
100
AcDbSymbolTable
70
0
0
ENDTAB
0
TABLE
2
UCS
5
7
330
0
100
AcDbSymbolTable
70
0
0
ENDTAB
0
TABLE
2
APPID
5
9
330
0
100
AcDbSymbolTable
70
1
0
APPID
5
12
330
9
100
AcDbSymbolTableRecord
100
AcDbRegAppTableRecord
2
ACAD
70
0
0
ENDTAB
0
TABLE
2
DIMSTYLE
5
A
330
0
100
AcDbSymbolTable
70
1
100
AcDbDimStyleTable
71
1
0
DIMSTYLE
105
47
330
A
100
AcDbSymbolTableRecord
100
AcDbDimStyleTableRecord
2
Standard
70
0
40
1
41
2.5
42
0.625
43
0.38
44
1.25
45
0
46
0
47
0
48
0
140
2.5
141
0.09
142
0
143
25.4
144
1
145
0
146
1
147
0.625
148
0
71
0
72
0
73
0
74
1
75
0
76
0
77
0
78
0
79
0
170
0
171
2
172
0
173
0
174
0
175
0
176
0
177
0
178
0
179
0
271
4
272
4
273
2
274
2
275
0
276
0
277
2
278
46
279
0
280
0
281
0
282
0
283
1
284
0
285
0
286
0
288
0
289
3
340
Standard
341

371
-2
372
-2
0
ENDTAB
0
TABLE
2
BLOCK_RECORD
5
1
330
0
100
AcDbSymbolTable
70
2
0
BLOCK_RECORD
5
1F
330
1
100
AcDbSymbolTableRecord
100
AcDbBlockTableRecord
2
*Model_Space
70
0
280
1
281
0
0
BLOCK_RECORD
5
1E
330
1
100
AcDbSymbolTableRecord
100
AcDbBlockTableRecord
2
*Paper_Space
70
0
280
1
281
0
0
BLOCK_RECORD
5
48
330
1
100
AcDbSymbolTableRecord
100
AcDbBlockTableRecord
2
*D1
70
0
280
1
281
0
0
BLOCK_RECORD
5
4B
330
1
100
AcDbSymbolTableRecord
100
AcDbBlockTableRecord
2
*D7
70
0
280
1
281
0
0
BLOCK_RECORD
5
4E
330
1
100
AcDbSymbolTableRecord
100
AcDbBlockTableRecord
2
*D9
70
0
280
1
281
0
0
BLOCK_RECORD
5
51
330
1
100
AcDbSymbolTableRecord
100
AcDbBlockTableRecord
2
*D8
70
0
280
1
281
0
0
BLOCK_RECORD
5
54
330
1
100
AcDbSymbolTableRecord
100
AcDbBlockTableRecord
2
*D4
70
0
280
1
281
0
0
BLOCK_RECORD
5
57
330
1
100
AcDbSymbolTableRecord
100
AcDbBlockTableRecord
2
*D5
70
0
280
1
281
0
0
BLOCK_RECORD
5
5A
330
1
100
AcDbSymbolTableRecord
100
AcDbBlockTableRecord
2
*D2
70
0
280
1
281
0
0
BLOCK_RECORD
5
5D
330
1
100
AcDbSymbolTableRecord
100
AcDbBlockTableRecord
2
*D3
70
0
280
1
281
0
0
BLOCK_RECORD
5
60
330
1
100
AcDbSymbolTableRecord
100
AcDbBlockTableRecord
2
*D6
70
0
280
1
281
0
0
ENDTAB
0
ENDSEC
0
SECTION
2
BLOCKS
0
BLOCK
5
20
330
1F
100
AcDbEntity
8
0
100
AcDbBlockBegin
2
*Model_Space
70
0
10
0
20
0
30
0
3
*Model_Space
1

0
ENDBLK
5
21
330
1F
100
AcDbEntity
8
0
100
AcDbBlockEnd
0
BLOCK
5
1C
330
1B
100
AcDbEntity
8
0
100
AcDbBlockBegin
2
*Paper_Space
70
0
10
0
20
0
30
0
3
*Paper_Space
1

0
ENDBLK
5
1D
330
1F
100
AcDbEntity
8
0
100
AcDbBlockEnd
0
BLOCK
5
49
330
48
100
AcDbEntity
8
0
100
AcDbBlockBegin
2
*D1
70
1
10
0
20
0
3
*D1
1

0
LINE
5
63
100
AcDbEntity
8
dim
6
CONTINUOUS
62
7
370
0
100
AcDbLine
10
28.2748166259
20
83.8
11
28.2748166259
21
60
0
SOLID
5
64
100
AcDbEntity
8
dim
6
CONTINUOUS
62
7
370
0
100
AcDbTrace
10
28.2748166259
20
83.8
30
0
11
28.6911012837
21
81.3
31
0
12
27.8585319681
22
81.3
32
0
13
27.8585319681
23
81.3
33
0
0
SOLID
5
65
100
AcDbEntity
8
dim
6
CONTINUOUS
62
7
370
0
100
AcDbTrace
10
28.2748166259
20
60
30
0
11
27.8585319681
21
62.5
31
0
12
28.6911012837
22
62.5
32
0
13
28.6911012837
23
62.5
33
0
0
MTEXT
5
66
100
AcDbEntity
8
dim
6
CONTINUOUS
62
7
370
0
100
AcDbMText
10
26.3998166259
20
71.9
30
0
40
2.5
41
5.83333333333
71
5
72
1
1
23.8
7
standard
210
0
220
0
230
1
50
90
73
2
44
1
0
LINE
5
67
100
AcDbEntity
8
dim
6
CONTINUOUS
62
7
370
0
100
AcDbLine
10
39.375
20
83.8
11
27.0248166259
21
83.8
0
LINE
5
68
100
AcDbEntity
8
dim
6
CONTINUOUS
62
7
370
0
100
AcDbLine
10
39.375
20
60
11
27.0248166259
21
60
0
ENDBLK
5
4A
330
48
100
AcDbEntity
8
0
100
AcDbBlockEnd
0
BLOCK
5
4C
330
4B
100
AcDbEntity
8
0
100
AcDbBlockBegin
2
*D7
70
1
10
0
20
0
3
*D7
1

0
LINE
5
69
100
AcDbEntity
8
dim
6
CONTINUOUS
62
7
370
0
100
AcDbLine
10
33.05
20
8.48372555012
11
49.03
21
8.48372555012
0
SOLID
5
6A
100
AcDbEntity
8
dim
6
CONTINUOUS
62
7
370
0
100
AcDbTrace
10
38.05
20
8.48372555012
30
0
11
35.55
21
8.06744089235
31
0
12
35.55
22
8.9000102079
32
0
13
35.55
23
8.9000102079
33
0
0
SOLID
5
6B
100
AcDbEntity
8
dim
6
CONTINUOUS
62
7
370
0
100
AcDbTrace
10
44.03
20
8.48372555012
30
0
11
46.53
21
8.9000102079
31
0
12
46.53
22
8.06744089235
32
0
13
46.53
23
8.06744089235
33
0
0
MTEXT
5
6C
100
AcDbEntity
8
dim
6
CONTINUOUS
62
7
370
0
100
AcDbMText
10
41.04
20
10.3587255501
30
0
40
2.5
41
5.83333333333
71
5
72
1
1
5.98
7
standard
210
0
220
0
230
1
50
0
73
2
44
1
0
LINE
5
6D
100
AcDbEntity
8
dim
6
CONTINUOUS
62
7
370
0
100
AcDbLine
10
38.05
20
16.4896509312
11
38.05
21
7.23372555012
0
LINE
5
6E
100
AcDbEntity
8
dim
6
CONTINUOUS
62
7
370
0
100
AcDbLine
10
44.03
20
16.4896509312
11
44.03
21
7.23372555012
0
ENDBLK
5
4D
330
4B
100
AcDbEntity
8
0
100
AcDbBlockEnd
0
BLOCK
5
4F
330
4E
100
AcDbEntity
8
0
100
AcDbBlockBegin
2
*D9
70
1
10
0
20
0
3
*D9
1

0
LINE
5
6F
100
AcDbEntity
8
dim
6
CONTINUOUS
62
7
370
0
100
AcDbLine
10
55.875
20
8.50293398533
11
62.45
21
8.50293398533
0
SOLID
5
70
100
AcDbEntity
8
dim
6
CONTINUOUS
62
7
370
0
100
AcDbTrace
10
55.875
20
8.50293398533
30
0
11
58.375
21
8.9192186431
31
0
12
58.375
22
8.08664932756
32
0
13
58.375
23
8.08664932756
33
0
0
SOLID
5
71
100
AcDbEntity
8
dim
6
CONTINUOUS
62
7
370
0
100
AcDbTrace
10
62.45
20
8.50293398533
30
0
11
59.95
21
8.08664932756
31
0
12
59.95
22
8.9192186431
32
0
13
59.95
23
8.9192186431
33
0
0
MTEXT
5
72
100
AcDbEntity
8
dim
6
CONTINUOUS
62
7
370
0
100
AcDbMText
10
66.9638888889
20
10.3779339853
30
0
40
2.5
41
7.77777777778
71
5
72
1
1
6.575
7
standard
210
0
220
0
230
1
50
0
73
2
44
1
0
LINE
5
73
100
AcDbEntity
8
dim
6
CONTINUOUS
62
7
370
0
100
AcDbLine
10
55.875
20
23.7596509312
11
55.875
21
7.25293398533
0
LINE
5
74
100
AcDbEntity
8
dim
6
CONTINUOUS
62
7
370
0
100
AcDbLine
10
62.45
20
23.7596509312
11
62.45
21
7.25293398533
0
ENDBLK
5
50
330
4E
100
AcDbEntity
8
0
100
AcDbBlockEnd
0
BLOCK
5
52
330
51
100
AcDbEntity
8
0
100
AcDbBlockBegin
2
*D8
70
1
10
0
20
0
3
*D8
1

0
LINE
5
75
100
AcDbEntity
8
dim
6
CONTINUOUS
62
7
370
0
100
AcDbLine
10
95.3528704156
20
8.48372555012
11
103.802870416
21
8.48372555012
0
SOLID
5
76
100
AcDbEntity
8
dim
6
CONTINUOUS
62
7
370
0
100
AcDbTrace
10
95.3528704156
20
8.48372555012
30
0
11
97.8528704156
21
8.9000102079
31
0
12
97.8528704156
22
8.06744089235
32
0
13
97.8528704156
23
8.06744089235
33
0
0
SOLID
5
77
100
AcDbEntity
8
dim
6
CONTINUOUS
62
7
370
0
100
AcDbTrace
10
103.802870416
20
8.48372555012
30
0
11
101.302870416
21
8.06744089235
31
0
12
101.302870416
22
8.9000102079
32
0
13
101.302870416
23
8.9000102079
33
0
0
MTEXT
5
78
100
AcDbEntity
8
dim
6
CONTINUOUS
62
7
370
0
100
AcDbMText
10
99.5778704156
20
10.3587255501
30
0
40
2.5
41
6.11111111111
71
5
72
1
1
8.45
7
standard
210
0
220
0
230
1
50
0
73
2
44
1
0
LINE
5
79
100
AcDbEntity
8
dim
6
CONTINUOUS
62
7
370
0
100
AcDbLine
10
95.3528704156
20
16.4896509312
11
95.3528704156
21
7.23372555012
0
LINE
5
7A
100
AcDbEntity
8
dim
6
CONTINUOUS
62
7
370
0
100
AcDbLine
10
103.802870416
20
16.4896509312
11
103.802870416
21
7.23372555012
0
ENDBLK
5
53
330
51
100
AcDbEntity
8
0
100
AcDbBlockEnd
0
BLOCK
5
55
330
54
100
AcDbEntity
8
0
100
AcDbBlockBegin
2
*D4
70
1
10
0
20
0
3
*D4
1

0
LINE
5
7B
100
AcDbEntity
8
dim
6
CONTINUOUS
62
7
370
0
100
AcDbLine
10
128.506992665
20
32.7646509312
11
128.506992665
21
24.3846509312
0
SOLID
5
7C
100
AcDbEntity
8
dim
6
CONTINUOUS
62
7
370
0
100
AcDbTrace
10
128.506992665
20
32.7646509312
30
0
11
128.923277323
21
30.2646509312
31
0
12
128.090708007
22
30.2646509312
32
0
13
128.090708007
23
30.2646509312
33
0
0
SOLID
5
7D
100
AcDbEntity
8
dim
6
CONTINUOUS
62
7
370
0
100
AcDbTrace
10
128.506992665
20
24.3846509312
30
0
11
128.090708007
21
26.8846509312
31
0
12
128.923277323
22
26.8846509312
32
0
13
128.923277323
23
26.8846509312
33
0
0
MTEXT
5
7E
100
AcDbEntity
8
dim
6
CONTINUOUS
62
7
370
0
100
AcDbMText
10
126.631992665
20
28.5746509312
30
0
40
2.5
41
5.83333333333
71
5
72
1
1
8.38
7
standard
210
0
220
0
230
1
50
90
73
2
44
1
0
LINE
5
7F
100
AcDbEntity
8
dim
6
CONTINUOUS
62
7
370
0
100
AcDbLine
10
119.667870416
20
32.7646509312
11
129.756992665
21
32.7646509312
0
LINE
5
80
100
AcDbEntity
8
dim
6
CONTINUOUS
62
7
370
0
100
AcDbLine
10
119.667870416
20
24.3846509312
11
129.756992665
21
24.3846509312
0
ENDBLK
5
56
330
54
100
AcDbEntity
8
0
100
AcDbBlockEnd
0
BLOCK
5
58
330
57
100
AcDbEntity
8
0
100
AcDbBlockBegin
2
*D5
70
1
10
0
20
0
3
*D5
1

0
LINE
5
81
100
AcDbEntity
8
dim
6
CONTINUOUS
62
7
370
0
100
AcDbLine
10
128.505778535
20
39.0646509312
11
128.505778535
21
27.7646509312
0
SOLID
5
82
100
AcDbEntity
8
dim
6
CONTINUOUS
62
7
370
0
100
AcDbTrace
10
128.505778535
20
34.0646509312
30
0
11
128.089493877
21
36.5646509312
31
0
12
128.922063193
22
36.5646509312
32
0
13
128.922063193
23
36.5646509312
33
0
0
SOLID
5
83
100
AcDbEntity
8
dim
6
CONTINUOUS
62
7
370
0
100
AcDbTrace
10
128.505778535
20
32.7646509312
30
0
11
128.922063193
21
30.2646509312
31
0
12
128.089493877
22
30.2646509312
32
0
13
128.089493877
23
30.2646509312
33
0
0
MTEXT
5
84
100
AcDbEntity
8
dim
6
CONTINUOUS
62
7
370
0
100
AcDbMText
10
126.630778535
20
36.3563175979
30
0
40
2.5
41
3.33333333333
71
5
72
1
1
1.3
7
standard
210
0
220
0
230
1
50
90
73
2
44
1
0
LINE
5
85
100
AcDbEntity
8
dim
6
CONTINUOUS
62
7
370
0
100
AcDbLine
10
119.667870416
20
34.0646509312
11
129.755778535
21
34.0646509312
0
LINE
5
86
100
AcDbEntity
8
dim
6
CONTINUOUS
62
7
370
0
100
AcDbLine
10
119.667870416
20
32.7646509312
11
129.755778535
21
32.7646509312
0
ENDBLK
5
59
330
57
100
AcDbEntity
8
0
100
AcDbBlockEnd
0
BLOCK
5
5B
330
5A
100
AcDbEntity
8
0
100
AcDbBlockBegin
2
*D2
70
1
10
0
20
0
3
*D2
1

0
LINE
5
87
100
AcDbEntity
8
dim
6
CONTINUOUS
62
7
370
0
100
AcDbLine
10
28.3567726161
20
34.0646509312
11
28.3567726161
21
17.1146509312
0
SOLID
5
88
100
AcDbEntity
8
dim
6
CONTINUOUS
62
7
370
0
100
AcDbTrace
10
28.3567726161
20
34.0646509312
30
0
11
28.7730572739
21
31.5646509312
31
0
12
27.9404879584
22
31.5646509312
32
0
13
27.9404879584
23
31.5646509312
33
0
0
SOLID
5
89
100
AcDbEntity
8
dim
6
CONTINUOUS
62
7
370
0
100
AcDbTrace
10
28.3567726161
20
17.1146509312
30
0
11
27.9404879584
21
19.6146509312
31
0
12
28.7730572739
22
19.6146509312
32
0
13
28.7730572739
23
19.6146509312
33
0
0
MTEXT
5
8A
100
AcDbEntity
8
dim
6
CONTINUOUS
62
7
370
0
100
AcDbMText
10
26.4817726161
20
25.5896509312
30
0
40
2.5
41
7.22222222222
71
5
72
1
1
16.95
7
standard
210
0
220
0
230
1
50
90
73
2
44
1
0
LINE
5
8B
100
AcDbEntity
8
dim
6
CONTINUOUS
62
7
370
0
100
AcDbLine
10
39.375
20
34.0646509312
11
27.1067726161
21
34.0646509312
0
LINE
5
8C
100
AcDbEntity
8
dim
6
CONTINUOUS
62
7
370
0
100
AcDbLine
10
37.425
20
17.1146509312
11
27.1067726161
21
17.1146509312
0
ENDBLK
5
5C
330
5A
100
AcDbEntity
8
0
100
AcDbBlockEnd
0
BLOCK
5
5E
330
5D
100
AcDbEntity
8
0
100
AcDbBlockBegin
2
*D3
70
1
10
0
20
0
3
*D3
1

0
LINE
5
8D
100
AcDbEntity
8
dim
6
CONTINUOUS
62
7
370
0
100
AcDbLine
10
28.3772616137
20
34.0646509312
11
28.3772616137
21
49.0946509312
0
SOLID
5
8E
100
AcDbEntity
8
dim
6
CONTINUOUS
62
7
370
0
100
AcDbTrace
10
28.3772616137
20
34.0646509312
30
0
11
27.9609769559
21
36.5646509312
31
0
12
28.7935462715
22
36.5646509312
32
0
13
28.7935462715
23
36.5646509312
33
0
0
SOLID
5
8F
100
AcDbEntity
8
dim
6
CONTINUOUS
62
7
370
0
100
AcDbTrace
10
28.3772616137
20
49.0946509312
30
0
11
28.7935462715
21
46.5946509312
31
0
12
27.9609769559
22
46.5946509312
32
0
13
27.9609769559
23
46.5946509312
33
0
0
MTEXT
5
90
100
AcDbEntity
8
dim
6
CONTINUOUS
62
7
370
0
100
AcDbMText
10
26.5022616137
20
41.5796509312
30
0
40
2.5
41
7.22222222222
71
5
72
1
1
15.03
7
standard
210
0
220
0
230
1
50
90
73
2
44
1
0
LINE
5
91
100
AcDbEntity
8
dim
6
CONTINUOUS
62
7
370
0
100
AcDbLine
10
39.375
20
34.0646509312
11
27.1272616137
21
34.0646509312
0
LINE
5
92
100
AcDbEntity
8
dim
6
CONTINUOUS
62
7
370
0
100
AcDbLine
10
55.25
20
49.0946509312
11
27.1272616137
21
49.0946509312
0
ENDBLK
5
5F
330
5D
100
AcDbEntity
8
0
100
AcDbBlockEnd
0
BLOCK
5
61
330
60
100
AcDbEntity
8
0
100
AcDbBlockBegin
2
*D6
70
1
10
0
20
0
3
*D6
1

0
LINE
5
93
100
AcDbEntity
8
dim
6
CONTINUOUS
62
7
370
0
100
AcDbLine
10
40
20
92.3152273839
11
72.3
21
92.3152273839
0
SOLID
5
94
100
AcDbEntity
8
dim
6
CONTINUOUS
62
7
370
0
100
AcDbTrace
10
40
20
92.3152273839
30
0
11
42.5
21
92.7315120416
31
0
12
42.5
22
91.8989427261
32
0
13
42.5
23
91.8989427261
33
0
0
SOLID
5
95
100
AcDbEntity
8
dim
6
CONTINUOUS
62
7
370
0
100
AcDbTrace
10
72.3
20
92.3152273839
30
0
11
69.8
21
91.8989427261
31
0
12
69.8
22
92.7315120416
32
0
13
69.8
23
92.7315120416
33
0
0
MTEXT
5
96
100
AcDbEntity
8
dim
6
CONTINUOUS
62
7
370
0
100
AcDbMText
10
56.15
20
94.1902273839
30
0
40
2.5
41
5.83333333333
71
5
72
1
1
32.3
7
standard
210
0
220
0
230
1
50
0
73
2
44
1
0
LINE
5
97
100
AcDbEntity
8
dim
6
CONTINUOUS
62
7
370
0
100
AcDbLine
10
40
20
84.425
11
40
21
93.5652273839
0
LINE
5
98
100
AcDbEntity
8
dim
6
CONTINUOUS
62
7
370
0
100
AcDbLine
10
72.3
20
84.425
11
72.3
21
93.5652273839
0
ENDBLK
5
62
330
60
100
AcDbEntity
8
0
100
AcDbBlockEnd
0
ENDSEC
0
SECTION
2
ENTITIES
0
LINE
5
99
100
AcDbEntity
8
0
6
ByLayer
62
256
370
-1
100
AcDbLine
10
40
20
60
11
40
21
83.8
0
LINE
5
9A
100
AcDbEntity
8
0
6
ByLayer
62
256
370
-1
100
AcDbLine
10
72.3
20
60
11
72.3
21
83.8
0
LINE
5
9B
100
AcDbEntity
8
0
6
ByLayer
62
256
370
-1
100
AcDbLine
10
40
20
83.8
11
72.3
21
83.8
0
LINE
5
9C
100
AcDbEntity
8
0
6
ByLayer
62
256
370
-1
100
AcDbLine
10
72.3
20
60
11
40
21
60
0
LINE
5
9D
100
AcDbEntity
8
0
6
ByLayer
62
256
370
-1
100
AcDbLine
10
67.72
20
60
11
67.72
21
83.8
0
LINE
5
9E
100
AcDbEntity
8
0
6
ByLayer
62
256
370
-1
100
AcDbLine
10
44.03
20
60
11
44.03
21
83.8
0
LINE
5
9F
100
AcDbEntity
8
guide
6
ByLayer
62
256
370
-1
100
AcDbLine
10
44.03
20
71.9
11
67.72
21
71.9
0
CIRCLE
5
A0
100
AcDbEntity
8
0
6
ByLayer
62
256
370
-1
100
AcDbCircle
10
55.875
20
71.9
40
11.46
0
LINE
5
A1
100
AcDbEntity
8
guide
6
ByLayer
62
256
370
-1
100
AcDbLine
10
40
20
60
11
40
21
20
0
LINE
5
A2
100
AcDbEntity
8
guide
6
ByLayer
62
256
370
-1
100
AcDbLine
10
44.03
20
60
11
44.03
21
20
0
LINE
5
A3
100
AcDbEntity
8
guide
6
ByLayer
62
256
370
-1
100
AcDbLine
10
67.72
20
60
11
67.72
21
20
0
LINE
5
A4
100
AcDbEntity
8
guide
6
ByLayer
62
256
370
-1
100
AcDbLine
10
72.3
20
60
11
72.3
21
20
0
LINE
5
A5
100
AcDbEntity
8
guide
6
ByLayer
62
256
370
-1
100
AcDbLine
10
44.415
20
71.9
11
44.415
21
31.9
0
LINE
5
A6
100
AcDbEntity
8
guide
6
ByLayer
62
256
370
-1
100
AcDbLine
10
67.335
20
71.9
11
67.335
21
31.9
0
LINE
5
A7
100
AcDbEntity
8
guide
6
ByLayer
62
256
370
-1
100
AcDbLine
10
55.875
20
71.9
11
55.875
21
31.9
0
ARC
5
A8
100
AcDbEntity
8
0
6
ByLayer
62
256
370
-1
100
AcDbCircle
10
55.875
20
37.6346509312
40
11.46
100
AcDbArc
50
0
51
180
0
LINE
5
A9
100
AcDbEntity
8
guide
6
ByLayer
62
256
370
-1
100
AcDbLine
10
72.3
20
37.6346509312
11
32.3
21
37.6346509312
0
LINE
5
AA
100
AcDbEntity
8
guide
6
ByLayer
62
256
370
-1
100
AcDbLine
10
72.3
20
34.0646509312
11
32.3
21
34.0646509312
0
LINE
5
AB
100
AcDbEntity
8
0
6
ByLayer
62
256
370
-1
100
AcDbLine
10
44.03
20
37.6346509312
11
67.72
21
37.6346509312
0
LINE
5
AC
100
AcDbEntity
8
0
6
ByLayer
62
256
370
-1
100
AcDbLine
10
67.72
20
37.6346509312
11
67.72
21
34.0646509312
0
LINE
5
AD
100
AcDbEntity
8
0
6
ByLayer
62
256
370
-1
100
AcDbLine
10
67.72
20
34.0646509312
11
44.03
21
34.0646509312
0
LINE
5
AE
100
AcDbEntity
8
0
6
ByLayer
62
256
370
-1
100
AcDbLine
10
44.03
20
34.0646509312
11
44.03
21
37.6346509312
0
LINE
5
AF
100
AcDbEntity
8
guide
6
ByLayer
62
256
370
-1
100
AcDbLine
10
72.3
20
32.7646509312
11
32.3
21
32.7646509312
0
LINE
5
B0
100
AcDbEntity
8
0
6
ByLayer
62
256
370
-1
100
AcDbLine
10
72.3
20
34.0646509312
11
40
21
34.0646509312
0
LINE
5
B1
100
AcDbEntity
8
0
6
ByLayer
62
256
370
-1
100
AcDbLine
10
40
20
34.0646509312
11
40
21
32.7646509312
0
LINE
5
B2
100
AcDbEntity
8
0
6
ByLayer
62
256
370
-1
100
AcDbLine
10
40
20
32.7646509312
11
72.3
21
32.7646509312
0
LINE
5
B3
100
AcDbEntity
8
0
6
ByLayer
62
256
370
-1
100
AcDbLine
10
72.3
20
32.7646509312
11
72.3
21
34.0646509312
0
LINE
5
B4
100
AcDbEntity
8
guide
6
ByLayer
62
256
370
-1
100
AcDbLine
10
72.3
20
24.3846509312
11
32.3
21
24.3846509312
0
LINE
5
B5
100
AcDbEntity
8
0
6
ByLayer
62
256
370
-1
100
AcDbLine
10
67.72
20
32.7646509312
11
72.3
21
32.7646509312
0
LINE
5
B6
100
AcDbEntity
8
0
6
ByLayer
62
256
370
-1
100
AcDbLine
10
72.3
20
32.7646509312
11
72.3
21
24.3846509312
0
LINE
5
B7
100
AcDbEntity
8
0
6
ByLayer
62
256
370
-1
100
AcDbLine
10
72.3
20
24.3846509312
11
67.72
21
24.3846509312
0
LINE
5
B8
100
AcDbEntity
8
0
6
ByLayer
62
256
370
-1
100
AcDbLine
10
67.72
20
24.3846509312
11
67.72
21
32.7646509312
0
LINE
5
B9
100
AcDbEntity
8
guide
6
ByLayer
62
256
370
-1
100
AcDbLine
10
42.5
20
60
11
42.5
21
20
0
LINE
5
BA
100
AcDbEntity
8
guide
6
ByLayer
62
256
370
-1
100
AcDbLine
10
72.3
20
30.2646509312
11
32.3
21
30.2646509312
0
LINE
5
BB
100
AcDbEntity
8
0
6
ByLayer
62
256
370
-1
100
AcDbLine
10
40
20
32.7646509312
11
42.5
21
32.7646509312
0
LINE
5
BC
100
AcDbEntity
8
0
6
ByLayer
62
256
370
-1
100
AcDbLine
10
42.5
20
32.7646509312
11
42.5
21
30.2646509312
0
LINE
5
BD
100
AcDbEntity
8
0
6
ByLayer
62
256
370
-1
100
AcDbLine
10
42.5
20
30.2646509312
11
40
21
30.2646509312
0
LINE
5
BE
100
AcDbEntity
8
0
6
ByLayer
62
256
370
-1
100
AcDbLine
10
40
20
30.2646509312
11
40
21
32.7646509312
0
LINE
5
BF
100
AcDbEntity
8
guide
6
ByLayer
62
256
370
-1
100
AcDbLine
10
38.05
20
60
11
38.05
21
20
0
LINE
5
C0
100
AcDbEntity
8
guide
6
ByLayer
62
256
370
-1
100
AcDbLine
10
72.3
20
17.1146509312
11
32.3
21
17.1146509312
0
LINE
5
C1
100
AcDbEntity
8
guide
6
ByLayer
62
256
370
-1
100
AcDbLine
10
38.05
20
20
11
38.05
21
-20
0
LINE
5
C2
100
AcDbEntity
8
guide
6
ByLayer
62
256
370
-1
100
AcDbLine
10
40
20
20
11
40
21
-20
0
LINE
5
C3
100
AcDbEntity
8
guide
6
ByLayer
62
256
370
-1
100
AcDbLine
10
42.5
20
20
11
42.5
21
-20
0
LINE
5
C4
100
AcDbEntity
8
guide
6
ByLayer
62
256
370
-1
100
AcDbLine
10
44.03
20
20
11
44.03
21
-20
0
LINE
5
C5
100
AcDbEntity
8
0
6
ByLayer
62
256
370
-1
100
AcDbLine
10
44.03
20
30.2646509312
11
38.05
21
30.2646509312
0
LINE
5
C6
100
AcDbEntity
8
0
6
ByLayer
62
256
370
-1
100
AcDbLine
10
38.05
20
30.2646509312
11
38.05
21
17.1146509312
0
LINE
5
C7
100
AcDbEntity
8
0
6
ByLayer
62
256
370
-1
100
AcDbLine
10
38.05
20
17.1146509312
11
44.03
21
17.1146509312
0
LINE
5
C8
100
AcDbEntity
8
0
6
ByLayer
62
256
370
-1
100
AcDbLine
10
44.03
20
17.1146509312
11
44.03
21
30.2646509312
0
LINE
5
C9
100
AcDbEntity
8
guide
6
ByLayer
62
256
370
-1
100
AcDbLine
10
46.67
20
60
11
46.67
21
20
0
LINE
5
CA
100
AcDbEntity
8
guide
6
ByLayer
62
256
370
-1
100
AcDbLine
10
53.31
20
60
11
53.31
21
20
0
LINE
5
CB
100
AcDbEntity
8
guide
6
ByLayer
62
256
370
-1
100
AcDbLine
10
55.81
20
60
11
55.81
21
20
0
LINE
5
CC
100
AcDbEntity
8
guide
6
ByLayer
62
256
370
-1
100
AcDbLine
10
62.45
20
60
11
62.45
21
20
0
LINE
5
CD
100
AcDbEntity
8
0
6
ByLayer
62
256
370
-1
100
AcDbLine
10
46.67
20
32.7646509312
11
53.31
21
32.7646509312
0
LINE
5
CE
100
AcDbEntity
8
0
6
ByLayer
62
256
370
-1
100
AcDbLine
10
53.31
20
32.7646509312
11
53.31
21
24.3846509312
0
LINE
5
CF
100
AcDbEntity
8
0
6
ByLayer
62
256
370
-1
100
AcDbLine
10
53.31
20
24.3846509312
11
46.67
21
24.3846509312
0
LINE
5
D0
100
AcDbEntity
8
0
6
ByLayer
62
256
370
-1
100
AcDbLine
10
46.67
20
24.3846509312
11
46.67
21
32.7646509312
0
LINE
5
D1
100
AcDbEntity
8
0
6
ByLayer
62
256
370
-1
100
AcDbLine
10
55.875
20
32.7646509312
11
62.45
21
32.7646509312
0
LINE
5
D2
100
AcDbEntity
8
0
6
ByLayer
62
256
370
-1
100
AcDbLine
10
62.45
20
32.7646509312
11
62.45
21
24.3846509312
0
LINE
5
D3
100
AcDbEntity
8
0
6
ByLayer
62
256
370
-1
100
AcDbLine
10
62.45
20
24.3846509312
11
55.875
21
24.3846509312
0
LINE
5
D4
100
AcDbEntity
8
0
6
ByLayer
62
256
370
-1
100
AcDbLine
10
55.875
20
24.3846509312
11
55.875
21
32.7646509312
0
LINE
5
D5
100
AcDbEntity
8
guide
6
ByLayer
62
256
370
-1
100
AcDbLine
10
67.72
20
71.9
11
72.3
21
71.9
0
LINE
5
D6
100
AcDbEntity
8
guide
6
ByLayer
62
256
370
-1
100
AcDbLine
10
44.03
20
71.9
11
40
21
71.9
0
CIRCLE
5
D7
100
AcDbEntity
8
0
6
ByLayer
62
256
370
-1
100
AcDbCircle
10
70.01
20
71.9
40
1.18
0
CIRCLE
5
D8
100
AcDbEntity
8
0
6
ByLayer
62
256
370
-1
100
AcDbCircle
10
42.015
20
71.9
40
1.18
0
LINE
5
D9
100
AcDbEntity
8
guide
6
ByLayer
62
256
370
-1
100
AcDbLine
10
55.81
20
49.0944665929
11
15.81
21
49.0944665929
0
ARC
5
DA
100
AcDbEntity
8
0
6
ByLayer
62
256
370
-1
100
AcDbCircle
10
107.197870416
20
37.6346509312
40
11.46
100
AcDbArc
50
0
51
180
0
LINE
5
DB
100
AcDbEntity
8
0
6
ByLayer
62
256
370
-1
100
AcDbLine
10
95.3528704156
20
37.6346509312
11
119.042870416
21
37.6346509312
0
LINE
5
DC
100
AcDbEntity
8
0
6
ByLayer
62
256
370
-1
100
AcDbLine
10
119.042870416
20
37.6346509312
11
119.042870416
21
34.0646509312
0
LINE
5
DD
100
AcDbEntity
8
0
6
ByLayer
62
256
370
-1
100
AcDbLine
10
119.042870416
20
34.0646509312
11
95.3528704156
21
34.0646509312
0
LINE
5
DE
100
AcDbEntity
8
0
6
ByLayer
62
256
370
-1
100
AcDbLine
10
95.3528704156
20
34.0646509312
11
95.3528704156
21
37.6346509312
0
LINE
5
DF
100
AcDbEntity
8
guide
6
ByLayer
62
256
370
-1
100
AcDbLine
10
95.3528704156
20
49.0944665929
11
95.3528704156
21
48.0944665929
0
LINE
5
E0
100
AcDbEntity
8
guide
6
ByLayer
62
256
370
-1
100
AcDbLine
10
119.042870416
20
49.0944665929
11
119.042870416
21
48.0944665929
0
LINE
5
E1
100
AcDbEntity
8
0
6
ByLayer
62
256
370
-1
100
AcDbLine
10
95.3528704156
20
34.0646509312
11
119.042870416
21
34.0646509312
0
LINE
5
E2
100
AcDbEntity
8
0
6
ByLayer
62
256
370
-1
100
AcDbLine
10
119.042870416
20
34.0646509312
11
119.042870416
21
32.7646509312
0
LINE
5
E3
100
AcDbEntity
8
0
6
ByLayer
62
256
370
-1
100
AcDbLine
10
119.042870416
20
32.7646509312
11
95.3528704156
21
32.7646509312
0
LINE
5
E4
100
AcDbEntity
8
0
6
ByLayer
62
256
370
-1
100
AcDbLine
10
95.3528704156
20
32.7646509312
11
95.3528704156
21
34.0646509312
0
LINE
5
E5
100
AcDbEntity
8
0
6
ByLayer
62
256
370
-1
100
AcDbLine
10
119.042870416
20
32.7646509312
11
119.042870416
21
24.3846509312
0
LINE
5
E6
100
AcDbEntity
8
0
6
ByLayer
62
256
370
-1
100
AcDbLine
10
119.042870416
20
24.3846509312
11
114.462870416
21
24.3846509312
0
LINE
5
E7
100
AcDbEntity
8
0
6
ByLayer
62
256
370
-1
100
AcDbLine
10
114.462870416
20
24.3846509312
11
114.462870416
21
32.7646509312
0
LINE
5
E8
100
AcDbEntity
8
0
6
ByLayer
62
256
370
-1
100
AcDbLine
10
114.462870416
20
32.7646509312
11
114.462870416
21
24.3846509312
0
LINE
5
E9
100
AcDbEntity
8
0
6
ByLayer
62
256
370
-1
100
AcDbLine
10
114.462870416
20
24.3846509312
11
109.882870416
21
24.3846509312
0
LINE
5
EA
100
AcDbEntity
8
0
6
ByLayer
62
256
370
-1
100
AcDbLine
10
109.882870416
20
24.3846509312
11
109.882870416
21
32.7646509312
0
LINE
5
EB
100
AcDbEntity
8
guide
6
ByLayer
62
256
370
-1
100
AcDbLine
10
100.222870416
20
49.0944665929
11
100.222870416
21
48.0944665929
0
LINE
5
EC
100
AcDbEntity
8
0
6
ByLayer
62
256
370
-1
100
AcDbLine
10
104.802870416
20
24.3846509312
11
104.802870416
21
32.7646509312
0
LINE
5
ED
100
AcDbEntity
8
0
6
ByLayer
62
256
370
-1
100
AcDbLine
10
104.802870416
20
24.3846509312
11
100.222870416
21
24.3846509312
0
LINE
5
EE
100
AcDbEntity
8
0
6
ByLayer
62
256
370
-1
100
AcDbLine
10
100.222870416
20
24.3846509312
11
100.222870416
21
32.7646509312
0
LINE
5
EF
100
AcDbEntity
8
0
6
ByLayer
62
256
370
-1
100
AcDbLine
10
100.222870416
20
24.3846509312
11
100.222870416
21
32.7646509312
0
LINE
5
F0
100
AcDbEntity
8
0
6
ByLayer
62
256
370
-1
100
AcDbLine
10
100.222870416
20
24.3846509312
11
95.6428704156
21
24.3846509312
0
LINE
5
F1
100
AcDbEntity
8
0
6
ByLayer
62
256
370
-1
100
AcDbLine
10
95.6428704156
20
24.3846509312
11
95.6428704156
21
32.7646509312
0
LINE
5
F2
100
AcDbEntity
8
guide
6
ByLayer
62
256
370
-1
100
AcDbLine
10
103.802870416
20
49.0944665929
11
103.802870416
21
48.0944665929
0
LINE
5
F3
100
AcDbEntity
8
0
6
ByLayer
62
256
370
-1
100
AcDbLine
10
95.3528704156
20
32.7646509312
11
103.802870416
21
32.7646509312
0
LINE
5
F4
100
AcDbEntity
8
0
6
ByLayer
62
256
370
-1
100
AcDbLine
10
103.802870416
20
17.1146509312
11
95.3528704156
21
17.1146509312
0
LINE
5
F5
100
AcDbEntity
8
0
6
ByLayer
62
256
370
-1
100
AcDbLine
10
95.3528704156
20
17.1146509312
11
95.3528704156
21
32.7646509312
0
LINE
5
F6
100
AcDbEntity
8
0
6
ByLayer
62
256
370
-1
100
AcDbLine
10
103.802870416
20
24.3846509312
11
103.802870416
21
17.1146509312
0
DIMENSION
5
F7
100
AcDbEntity
8
dim
6
ByLayer
62
256
370
-1
100
AcDbDimension
2
*D1
10
28.2748166259
20
60
30
0
11
26.3998166259
21
71.9
31
0
70
32
71
5
3
Standard
53
0
210
0
220
0
230
1
100
AcDbAlignedDimension
13
40
23
83.8
33
0
14
40
24
60
34
0
50
90
100
AcDbRotatedDimension
0
DIMENSION
5
F8
100
AcDbEntity
8
dim
6
ByLayer
62
256
370
-1
100
AcDbDimension
2
*D2
10
28.3567726161
20
17.1146509312
30
0
11
26.4817726161
21
25.5896509312
31
0
70
32
71
5
3
Standard
53
0
210
0
220
0
230
1
100
AcDbAlignedDimension
13
40
23
34.0646509312
33
0
14
38.05
24
17.1146509312
34
0
50
90
100
AcDbRotatedDimension
0
DIMENSION
5
F9
100
AcDbEntity
8
dim
6
ByLayer
62
256
370
-1
100
AcDbDimension
2
*D3
10
28.3772616137
20
49.0946509312
30
0
11
26.5022616137
21
41.5796509312
31
0
70
32
71
5
3
Standard
53
0
210
0
220
0
230
1
100
AcDbAlignedDimension
13
40
23
34.0646509312
33
0
14
55.875
24
49.0946509312
34
0
50
90
100
AcDbRotatedDimension
0
DIMENSION
5
FA
100
AcDbEntity
8
dim
6
ByLayer
62
256
370
-1
100
AcDbDimension
2
*D4
10
128.506992665
20
24.3846509312
30
0
11
126.631992665
21
28.5746509312
31
0
70
32
71
5
3
Standard
53
0
210
0
220
0
230
1
100
AcDbAlignedDimension
13
119.042870416
23
32.7646509312
33
0
14
119.042870416
24
24.3846509312
34
0
50
90
100
AcDbRotatedDimension
0
DIMENSION
5
FB
100
AcDbEntity
8
dim
6
ByLayer
62
256
370
-1
100
AcDbDimension
2
*D5
10
128.505778535
20
32.7646509312
30
0
11
126.630778535
21
33.4146509312
31
0
70
32
71
5
3
Standard
53
0
210
0
220
0
230
1
100
AcDbAlignedDimension
13
119.042870416
23
34.0646509312
33
0
14
119.042870416
24
32.7646509312
34
0
50
90
100
AcDbRotatedDimension
0
DIMENSION
5
FC
100
AcDbEntity
8
dim
6
ByLayer
62
256
370
-1
100
AcDbDimension
2
*D6
10
72.3
20
92.3152273839
30
0
11
56.15
21
94.1902273839
31
0
70
32
71
5
3
Standard
53
0
210
0
220
0
230
1
100
AcDbAlignedDimension
13
40
23
83.8
33
0
14
72.3
24
83.8
34
0
100
AcDbRotatedDimension
0
DIMENSION
5
FD
100
AcDbEntity
8
dim
6
ByLayer
62
256
370
-1
100
AcDbDimension
2
*D7
10
44.03
20
8.48372555012
30
0
11
41.04
21
10.3587255501
31
0
70
32
71
5
3
Standard
53
0
210
0
220
0
230
1
100
AcDbAlignedDimension
13
38.05
23
17.1146509312
33
0
14
44.03
24
17.1146509312
34
0
100
AcDbRotatedDimension
0
DIMENSION
5
FE
100
AcDbEntity
8
dim
6
ByLayer
62
256
370
-1
100
AcDbDimension
2
*D8
10
103.802870416
20
8.48372555012
30
0
11
99.5778704156
21
10.3587255501
31
0
70
32
71
5
3
Standard
53
0
210
0
220
0
230
1
100
AcDbAlignedDimension
13
95.3528704156
23
17.1146509312
33
0
14
103.802870416
24
17.1146509312
34
0
100
AcDbRotatedDimension
0
DIMENSION
5
FF
100
AcDbEntity
8
dim
6
ByLayer
62
256
370
-1
100
AcDbDimension
2
*D9
10
62.45
20
8.50293398533
30
0
11
59.1625
21
10.3779339853
31
0
70
32
71
5
3
Standard
53
0
210
0
220
0
230
1
100
AcDbAlignedDimension
13
55.875
23
24.3846509312
33
0
14
62.45
24
24.3846509312
34
0
100
AcDbRotatedDimension
0
LINE
5
100
100
AcDbEntity
8
guide
6
ByLayer
62
256
370
-1
100
AcDbLine
10
40.8
20
60
11
40.8
21
20
0
LINE
5
101
100
AcDbEntity
8
guide
6
ByLayer
62
256
370
-1
100
AcDbLine
10
41.6
20
60
11
41.6
21
20
0
LINE
5
102
100
AcDbEntity
8
guide
6
ByLayer
62
256
370
-1
100
AcDbLine
10
72.3
20
35.5646509312
11
32.3
21
35.5646509312
0
LINE
5
103
100
AcDbEntity
8
guide
6
ByLayer
62
256
370
-1
100
AcDbLine
10
70.9
20
60
11
70.9
21
20
0
LINE
5
104
100
AcDbEntity
8
guide
6
ByLayer
62
256
370
-1
100
AcDbLine
10
70.1
20
60
11
70.1
21
20
0
LINE
5
105
100
AcDbEntity
8
0
6
ByLayer
62
256
370
-1
100
AcDbLine
10
40.8
20
35.5646509312
11
41.6
21
35.5646509312
0
LINE
5
106
100
AcDbEntity
8
0
6
ByLayer
62
256
370
-1
100
AcDbLine
10
41.6
20
35.5646509312
11
41.6
21
34.0646509312
0
LINE
5
107
100
AcDbEntity
8
0
6
ByLayer
62
256
370
-1
100
AcDbLine
10
41.6
20
34.0646509312
11
40.8
21
34.0646509312
0
LINE
5
108
100
AcDbEntity
8
0
6
ByLayer
62
256
370
-1
100
AcDbLine
10
40.8
20
34.0646509312
11
40.8
21
35.5646509312
0
LINE
5
109
100
AcDbEntity
8
0
6
ByLayer
62
256
370
-1
100
AcDbLine
10
70.1
20
35.5646509312
11
70.9
21
35.5646509312
0
LINE
5
10A
100
AcDbEntity
8
0
6
ByLayer
62
256
370
-1
100
AcDbLine
10
70.9
20
35.5646509312
11
70.9
21
34.0646509312
0
LINE
5
10B
100
AcDbEntity
8
0
6
ByLayer
62
256
370
-1
100
AcDbLine
10
70.9
20
34.0646509312
11
70.1
21
34.0646509312
0
LINE
5
10C
100
AcDbEntity
8
0
6
ByLayer
62
256
370
-1
100
AcDbLine
10
70.1
20
34.0646509312
11
70.1
21
35.5646509312
0
LINE
5
10D
100
AcDbEntity
8
guide
6
ByLayer
62
256
370
-1
100
AcDbLine
10
119.042870416
20
35.5646509312
11
95.3528704156
21
35.5646509312
0
LINE
5
10E
100
AcDbEntity
8
guide
6
ByLayer
62
256
370
-1
100
AcDbLine
10
100.222870416
20
34.0646509312
11
100.222870416
21
35.5646509312
0
LINE
5
10F
100
AcDbEntity
8
guide
6
ByLayer
62
256
370
-1
100
AcDbLine
10
104.802870416
20
34.0646509312
11
104.802870416
21
35.5646509312
0
LINE
5
110
100
AcDbEntity
8
guide
6
ByLayer
62
256
370
-1
100
AcDbLine
10
109.882870416
20
34.0646509312
11
109.882870416
21
35.5646509312
0
LINE
5
111
100
AcDbEntity
8
guide
6
ByLayer
62
256
370
-1
100
AcDbLine
10
114.462870416
20
34.0646509312
11
114.462870416
21
35.5646509312
0
LINE
5
112
100
AcDbEntity
8
0
6
ByLayer
62
256
370
-1
100
AcDbLine
10
100.222870416
20
35.5646509312
11
104.802870416
21
35.5646509312
0
LINE
5
113
100
AcDbEntity
8
0
6
ByLayer
62
256
370
-1
100
AcDbLine
10
104.802870416
20
35.5646509312
11
104.802870416
21
34.0646509312
0
LINE
5
114
100
AcDbEntity
8
0
6
ByLayer
62
256
370
-1
100
AcDbLine
10
104.802870416
20
34.0646509312
11
100.222870416
21
34.0646509312
0
LINE
5
115
100
AcDbEntity
8
0
6
ByLayer
62
256
370
-1
100
AcDbLine
10
100.222870416
20
34.0646509312
11
100.222870416
21
35.5646509312
0
LINE
5
116
100
AcDbEntity
8
0
6
ByLayer
62
256
370
-1
100
AcDbLine
10
109.882870416
20
35.5646509312
11
114.462870416
21
35.5646509312
0
LINE
5
117
100
AcDbEntity
8
0
6
ByLayer
62
256
370
-1
100
AcDbLine
10
114.462870416
20
35.5646509312
11
114.462870416
21
34.0646509312
0
LINE
5
118
100
AcDbEntity
8
0
6
ByLayer
62
256
370
-1
100
AcDbLine
10
114.462870416
20
34.0646509312
11
109.882870416
21
34.0646509312
0
LINE
5
119
100
AcDbEntity
8
0
6
ByLayer
62
256
370
-1
100
AcDbLine
10
109.882870416
20
34.0646509312
11
109.882870416
21
35.5646509312
0
LINE
5
11A
100
AcDbEntity
8
0
6
ByLayer
62
256
370
-1
100
AcDbLine
10
114.462870416
20
35.5646509312
11
119.042870416
21
35.5646509312
0
LINE
5
11B
100
AcDbEntity
8
0
6
ByLayer
62
256
370
-1
100
AcDbLine
10
119.042870416
20
35.5646509312
11
119.042870416
21
34.0646509312
0
LINE
5
11C
100
AcDbEntity
8
0
6
ByLayer
62
256
370
-1
100
AcDbLine
10
119.042870416
20
34.0646509312
11
114.462870416
21
34.0646509312
0
LINE
5
11D
100
AcDbEntity
8
0
6
ByLayer
62
256
370
-1
100
AcDbLine
10
114.462870416
20
34.0646509312
11
114.462870416
21
35.5646509312
0
ENDSEC
0
SECTION
2
OBJECTS
0
DICTIONARY
5
C
330
0
100
AcDbDictionary
281
1
3
ACAD_GROUP
350
D
0
DICTIONARY
5
D
330
C
100
AcDbDictionary
281
1
0
ENDSEC
0
EOF
